<svg width="349" height="240" viewBox="0 0 349 240" fill="none" xmlns="http://www.w3.org/2000/svg">
<g clip-path="url(#clip0_675_649)">
<path d="M343.479 145.48H298.293V231.238H343.479V145.48Z" fill="#E0E0E0"/>
<path d="M343.479 145.48H322.291V231.238H343.479V145.48Z" fill="#EBEBEB"/>
<path d="M311.833 153.547H307.77V163.418H311.833V153.547Z" fill="#F5F5F5"/>
<path d="M311.833 192.18H307.77V202.05H311.833V192.18Z" fill="#F5F5F5"/>
<path d="M322.291 167.295C322.291 167.377 316.916 167.452 310.296 167.452C303.676 167.452 298.293 167.385 298.293 167.295C298.293 167.206 303.668 167.139 310.296 167.139C316.924 167.139 322.291 167.206 322.291 167.295Z" fill="#F5F5F5"/>
<path d="M311.833 173.014H307.77V182.884H311.833V173.014Z" fill="#F5F5F5"/>
<path d="M322.291 186.754C322.291 186.836 316.916 186.911 310.296 186.911C303.676 186.911 298.293 186.844 298.293 186.754C298.293 186.665 303.668 186.598 310.296 186.598C316.924 186.598 322.291 186.665 322.291 186.754Z" fill="#F5F5F5"/>
<path d="M330.848 153.547H326.785V163.418H330.848V153.547Z" fill="#E0E0E0"/>
<path d="M339.669 153.547H335.605V163.418H339.669V153.547Z" fill="#E0E0E0"/>
<path d="M330.848 172.283H326.785V182.154H330.848V172.283Z" fill="#E0E0E0"/>
<path d="M339.669 172.283H335.605V182.154H339.669V172.283Z" fill="#E0E0E0"/>
<path d="M330.848 191.01H326.785V200.881H330.848V191.01Z" fill="#E0E0E0"/>
<path d="M339.669 191.01H335.605V200.881H339.669V191.01Z" fill="#E0E0E0"/>
<path d="M346.871 143.408H294.893V145.555H346.871V143.408Z" fill="#E0E0E0"/>
<path d="M343.792 145.756C343.792 145.838 333.69 145.913 321.239 145.913C308.789 145.913 298.68 145.846 298.68 145.756C298.68 145.667 308.774 145.6 321.239 145.6C333.705 145.6 343.792 145.667 343.792 145.756Z" fill="#EBEBEB"/>
<path d="M233.297 100.4H199.51V207.48H233.297V100.4Z" fill="#F5F5F5"/>
<path d="M233.298 100.4H216.404V207.19H233.298V100.4Z" fill="#EBEBEB"/>
<path d="M215.3 89.8887H203.371V100.401H215.3V89.8887Z" fill="#F5F5F5"/>
<path d="M215.299 89.8887H212.459V100.401H215.299V89.8887Z" fill="#EBEBEB"/>
<path d="M196.699 100.4V99.7891H234.289V100.4" fill="#E0E0E0"/>
<path d="M209.044 104.986H206.182V111.018H209.044V104.986Z" fill="#FAFAFA"/>
<path d="M216.403 113.387C216.403 113.454 212.624 113.499 207.957 113.499C203.29 113.499 199.51 113.447 199.51 113.387C199.51 113.328 203.29 113.275 207.957 113.275C212.624 113.275 216.403 113.328 216.403 113.387Z" fill="#E0E0E0"/>
<path d="M226.087 104.986H223.225V111.018H226.087V104.986Z" fill="#E0E0E0"/>
<path d="M233.446 113.389C233.446 113.456 229.667 113.501 225 113.501C220.333 113.501 216.553 113.449 216.553 113.389C216.553 113.33 220.333 113.277 225 113.277C229.667 113.277 233.446 113.33 233.446 113.389Z" fill="#E0E0E0"/>
<path d="M226.087 116.959H223.225V122.99H226.087V116.959Z" fill="#E0E0E0"/>
<path d="M233.446 125.362C233.446 125.429 229.667 125.474 225 125.474C220.333 125.474 216.553 125.421 216.553 125.362C216.553 125.302 220.333 125.25 225 125.25C229.667 125.25 233.446 125.302 233.446 125.362Z" fill="#E0E0E0"/>
<path d="M226.087 129.297H223.225V135.328H226.087V129.297Z" fill="#E0E0E0"/>
<path d="M233.446 137.692C233.446 137.759 229.667 137.804 225 137.804C220.333 137.804 216.553 137.752 216.553 137.692C216.553 137.632 220.333 137.58 225 137.58C229.667 137.58 233.446 137.632 233.446 137.692Z" fill="#E0E0E0"/>
<path d="M226.087 141.629H223.225V147.66H226.087V141.629Z" fill="#E0E0E0"/>
<path d="M233.446 150.032C233.446 150.099 229.667 150.144 225 150.144C220.333 150.144 216.553 150.091 216.553 150.032C216.553 149.972 220.333 149.92 225 149.92C229.667 149.92 233.446 149.972 233.446 150.032Z" fill="#E0E0E0"/>
<path d="M226.087 153.609H223.225V159.641H226.087V153.609Z" fill="#E0E0E0"/>
<path d="M233.446 162.012C233.446 162.079 229.667 162.124 225 162.124C220.333 162.124 216.553 162.072 216.553 162.012C216.553 161.953 220.333 161.9 225 161.9C229.667 161.9 233.446 161.953 233.446 162.012Z" fill="#E0E0E0"/>
<path d="M226.087 165.643H223.225V171.674H226.087V165.643Z" fill="#E0E0E0"/>
<path d="M226.087 177.832H223.225V183.863H226.087V177.832Z" fill="#E0E0E0"/>
<path d="M233.446 174.038C233.446 174.105 229.667 174.149 225 174.149C220.333 174.149 216.553 174.097 216.553 174.038C216.553 173.978 220.333 173.926 225 173.926C229.667 173.926 233.446 173.978 233.446 174.038Z" fill="#E0E0E0"/>
<path d="M209.044 117.145H206.182V123.176H209.044V117.145Z" fill="#FAFAFA"/>
<path d="M216.403 125.54C216.403 125.607 212.624 125.651 207.957 125.651C203.29 125.651 199.51 125.599 199.51 125.54C199.51 125.48 203.29 125.428 207.957 125.428C212.624 125.428 216.403 125.48 216.403 125.54Z" fill="#E0E0E0"/>
<path d="M209.044 129.297H206.182V135.328H209.044V129.297Z" fill="#FAFAFA"/>
<path d="M216.403 137.7C216.403 137.767 212.624 137.812 207.957 137.812C203.29 137.812 199.51 137.759 199.51 137.7C199.51 137.64 203.29 137.588 207.957 137.588C212.624 137.588 216.403 137.64 216.403 137.7Z" fill="#E0E0E0"/>
<path d="M209.044 141.457H206.182V147.488H209.044V141.457Z" fill="#FAFAFA"/>
<path d="M216.403 149.852C216.403 149.919 212.624 149.964 207.957 149.964C203.29 149.964 199.51 149.912 199.51 149.852C199.51 149.792 203.29 149.74 207.957 149.74C212.624 149.74 216.403 149.792 216.403 149.852Z" fill="#E0E0E0"/>
<path d="M209.044 153.609H206.182V159.641H209.044V153.609Z" fill="#FAFAFA"/>
<path d="M216.403 162.01C216.403 162.077 212.624 162.122 207.957 162.122C203.29 162.122 199.51 162.07 199.51 162.01C199.51 161.951 203.29 161.898 207.957 161.898C212.624 161.898 216.403 161.951 216.403 162.01Z" fill="#E0E0E0"/>
<path d="M209.044 165.768H206.182V171.799H209.044V165.768Z" fill="#FAFAFA"/>
<path d="M216.403 174.163C216.403 174.23 212.624 174.274 207.957 174.274C203.29 174.274 199.51 174.222 199.51 174.163C199.51 174.103 203.29 174.051 207.957 174.051C212.624 174.051 216.403 174.103 216.403 174.163Z" fill="#E0E0E0"/>
<path d="M209.044 177.92H206.182V183.951H209.044V177.92Z" fill="#FAFAFA"/>
<path d="M253.084 147.996H189.67V231.629H253.084V147.996Z" fill="#EBEBEB"/>
<path d="M253.085 147.996H223.354V231.629H253.085V147.996Z" fill="#E0E0E0"/>
<path d="M208.674 159.32H202.971V173.172H208.674V159.32Z" fill="#F5F5F5"/>
<path d="M208.674 213.535H202.971V227.387H208.674V213.535Z" fill="#F5F5F5"/>
<path d="M223.353 178.608C223.353 178.764 215.816 178.891 206.511 178.891C197.207 178.891 189.67 178.764 189.67 178.608C189.67 178.451 197.207 178.324 206.511 178.324C215.816 178.324 223.353 178.451 223.353 178.608Z" fill="#F5F5F5"/>
<path d="M208.674 186.637H202.971V200.489H208.674V186.637Z" fill="#F5F5F5"/>
<path d="M223.353 205.924C223.353 206.08 215.816 206.207 206.511 206.207C197.207 206.207 189.67 206.08 189.67 205.924C189.67 205.767 197.207 205.641 206.511 205.641C215.816 205.641 223.353 205.767 223.353 205.924Z" fill="#F5F5F5"/>
<path d="M235.371 159.32H229.668V173.172H235.371V159.32Z" fill="#F5F5F5"/>
<path d="M247.738 159.32H242.035V173.172H247.738V159.32Z" fill="#F5F5F5"/>
<path d="M235.371 185.607H229.668V199.459H235.371V185.607Z" fill="#F5F5F5"/>
<path d="M247.738 185.607H242.035V199.459H247.738V185.607Z" fill="#F5F5F5"/>
<path d="M235.371 211.895H229.668V225.746H235.371V211.895Z" fill="#F5F5F5"/>
<path d="M247.738 211.895H242.035V225.746H247.738V211.895Z" fill="#F5F5F5"/>
<path d="M257.849 145.088H184.906V148.107H257.849V145.088Z" fill="#E0E0E0"/>
<path d="M253.525 148.383C253.525 148.539 239.353 148.666 221.87 148.666C204.387 148.666 190.215 148.539 190.215 148.383C190.215 148.226 204.387 148.1 221.87 148.1C239.353 148.1 253.525 148.226 253.525 148.383Z" fill="#EBEBEB"/>
<path d="M73.6811 63.2891H28.1816V207.489H73.6811V63.2891Z" fill="#F5F5F5"/>
<path d="M73.6737 63.2891H50.9277V207.086H73.6737V63.2891Z" fill="#EBEBEB"/>
<path d="M49.4431 49.1309H33.377V63.2884H49.4431V49.1309Z" fill="#F5F5F5"/>
<path d="M49.4433 49.1309H45.6113V63.2884H49.4433V49.1309Z" fill="#EBEBEB"/>
<path d="M24.3867 63.2885V62.4609H75.008V63.2885" fill="#E0E0E0"/>
<path d="M41.0126 69.4609H37.1582V77.5797H41.0126V69.4609Z" fill="#FAFAFA"/>
<path d="M50.9273 80.7718C50.9273 80.8613 45.8354 80.9284 39.5506 80.9284C33.2658 80.9284 28.1738 80.8613 28.1738 80.7718C28.1738 80.6823 33.2658 80.6152 39.5506 80.6152C45.8354 80.6152 50.9273 80.6823 50.9273 80.7718Z" fill="#E0E0E0"/>
<path d="M63.9598 69.4609H60.1055V77.5797H63.9598V69.4609Z" fill="#E0E0E0"/>
<path d="M73.8746 80.7698C73.8746 80.8593 68.7826 80.9264 62.4978 80.9264C56.213 80.9264 51.1211 80.8593 51.1211 80.7698C51.1211 80.6804 56.213 80.6133 62.4978 80.6133C68.7826 80.6133 73.8746 80.6804 73.8746 80.7698Z" fill="#E0E0E0"/>
<path d="M63.9598 85.5879H60.1055V93.7067H63.9598V85.5879Z" fill="#E0E0E0"/>
<path d="M73.8746 96.8968C73.8746 96.9788 68.7826 97.0534 62.4978 97.0534C56.213 97.0534 51.1211 96.9863 51.1211 96.8968C51.1211 96.8073 56.213 96.7402 62.4978 96.7402C68.7826 96.7402 73.8746 96.8073 73.8746 96.8968Z" fill="#E0E0E0"/>
<path d="M63.9598 102.197H60.1055V110.316H63.9598V102.197Z" fill="#E0E0E0"/>
<path d="M73.8746 113.5C73.8746 113.582 68.7826 113.657 62.4978 113.657C56.213 113.657 51.1211 113.59 51.1211 113.5C51.1211 113.411 56.213 113.344 62.4978 113.344C68.7826 113.344 73.8746 113.411 73.8746 113.5Z" fill="#E0E0E0"/>
<path d="M63.9598 118.809H60.1055V126.927H63.9598V118.809Z" fill="#E0E0E0"/>
<path d="M73.8746 130.112C73.8746 130.194 68.7826 130.268 62.4978 130.268C56.213 130.268 51.1211 130.201 51.1211 130.112C51.1211 130.022 56.213 129.955 62.4978 129.955C68.7826 129.955 73.8746 130.022 73.8746 130.112Z" fill="#E0E0E0"/>
<path d="M63.9598 134.941H60.1055V143.06H63.9598V134.941Z" fill="#E0E0E0"/>
<path d="M73.8746 146.244C73.8746 146.326 68.7826 146.401 62.4978 146.401C56.213 146.401 51.1211 146.334 51.1211 146.244C51.1211 146.155 56.213 146.088 62.4978 146.088C68.7826 146.088 73.8746 146.155 73.8746 146.244Z" fill="#E0E0E0"/>
<path d="M63.9598 151.141H60.1055V159.259H63.9598V151.141Z" fill="#E0E0E0"/>
<path d="M63.9598 167.549H60.1055V175.668H63.9598V167.549Z" fill="#E0E0E0"/>
<path d="M73.8746 162.444C73.8746 162.526 68.7826 162.6 62.4978 162.6C56.213 162.6 51.1211 162.533 51.1211 162.444C51.1211 162.354 56.213 162.287 62.4978 162.287C68.7826 162.287 73.8746 162.354 73.8746 162.444Z" fill="#E0E0E0"/>
<path d="M41.0126 85.834H37.1582V93.9528H41.0126V85.834Z" fill="#FAFAFA"/>
<path d="M50.9273 97.1429C50.9273 97.2249 45.8354 97.2994 39.5506 97.2994C33.2658 97.2994 28.1738 97.2324 28.1738 97.1429C28.1738 97.0534 33.2658 96.9863 39.5506 96.9863C45.8354 96.9863 50.9273 97.0534 50.9273 97.1429Z" fill="#E0E0E0"/>
<path d="M41.0126 102.197H37.1582V110.316H41.0126V102.197Z" fill="#FAFAFA"/>
<path d="M50.9273 113.506C50.9273 113.588 45.8354 113.663 39.5506 113.663C33.2658 113.663 28.1738 113.596 28.1738 113.506C28.1738 113.417 33.2658 113.35 39.5506 113.35C45.8354 113.35 50.9273 113.417 50.9273 113.506Z" fill="#E0E0E0"/>
<path d="M41.0126 118.568H37.1582V126.687H41.0126V118.568Z" fill="#FAFAFA"/>
<path d="M50.9273 129.879C50.9273 129.969 45.8354 130.036 39.5506 130.036C33.2658 130.036 28.1738 129.969 28.1738 129.879C28.1738 129.79 33.2658 129.723 39.5506 129.723C45.8354 129.723 50.9273 129.79 50.9273 129.879Z" fill="#E0E0E0"/>
<path d="M41.0126 134.941H37.1582V143.06H41.0126V134.941Z" fill="#FAFAFA"/>
<path d="M50.9273 146.243C50.9273 146.325 45.8354 146.399 39.5506 146.399C33.2658 146.399 28.1738 146.332 28.1738 146.243C28.1738 146.153 33.2658 146.086 39.5506 146.086C45.8354 146.086 50.9273 146.153 50.9273 146.243Z" fill="#E0E0E0"/>
<path d="M41.0126 151.305H37.1582V159.423H41.0126V151.305Z" fill="#FAFAFA"/>
<path d="M50.9273 162.616C50.9273 162.698 45.8354 162.772 39.5506 162.772C33.2658 162.772 28.1738 162.705 28.1738 162.616C28.1738 162.526 33.2658 162.459 39.5506 162.459C45.8354 162.459 50.9273 162.526 50.9273 162.616Z" fill="#E0E0E0"/>
<path d="M41.0126 167.678H37.1582V175.797H41.0126V167.678Z" fill="#FAFAFA"/>
<path d="M79.436 147.996H16.0215V231.629H79.436V147.996Z" fill="#EBEBEB"/>
<path d="M79.4289 147.996H49.6973V231.629H79.4289V147.996Z" fill="#E0E0E0"/>
<path d="M35.0177 159.32H29.3145V173.172H35.0177V159.32Z" fill="#F5F5F5"/>
<path d="M35.0177 213.535H29.3145V227.387H35.0177V213.535Z" fill="#F5F5F5"/>
<path d="M49.6966 178.608C49.6966 178.764 42.1593 178.891 32.8551 178.891C23.5509 178.891 16.0137 178.764 16.0137 178.608C16.0137 178.451 23.5509 178.324 32.8551 178.324C42.1593 178.324 49.6966 178.451 49.6966 178.608Z" fill="#F5F5F5"/>
<path d="M35.0177 186.637H29.3145V200.489H35.0177V186.637Z" fill="#F5F5F5"/>
<path d="M49.6966 205.924C49.6966 206.08 42.1593 206.207 32.8551 206.207C23.5509 206.207 16.0137 206.08 16.0137 205.924C16.0137 205.767 23.5509 205.641 32.8551 205.641C42.1593 205.641 49.6966 205.767 49.6966 205.924Z" fill="#F5F5F5"/>
<path d="M61.715 159.32H56.0117V173.172H61.715V159.32Z" fill="#F5F5F5"/>
<path d="M74.0822 159.32H68.3789V173.172H74.0822V159.32Z" fill="#F5F5F5"/>
<path d="M61.715 185.607H56.0117V199.459H61.715V185.607Z" fill="#F5F5F5"/>
<path d="M74.0822 185.607H68.3789V199.459H74.0822V185.607Z" fill="#F5F5F5"/>
<path d="M61.715 211.895H56.0117V225.746H61.715V211.895Z" fill="#F5F5F5"/>
<path d="M74.0822 211.895H68.3789V225.746H74.0822V211.895Z" fill="#F5F5F5"/>
<path d="M84.1923 145.088H11.25V148.107H84.1923V145.088Z" fill="#E0E0E0"/>
<path d="M79.8765 148.383C79.8765 148.539 65.7041 148.666 48.2215 148.666C30.7389 148.666 16.5664 148.539 16.5664 148.383C16.5664 148.226 30.7389 148.1 48.2215 148.1C65.7041 148.1 79.8765 148.226 79.8765 148.383Z" fill="#EBEBEB"/>
<path d="M189.52 231.636H125.598L125.322 130.625H189.236L189.52 231.636Z" fill="#EBEBEB"/>
<path d="M189.244 130.625H157.283V231.644H189.244V130.625Z" fill="#E0E0E0"/>
<path d="M155.188 110.734H132.621V130.618H155.188V110.734Z" fill="#EBEBEB"/>
<path d="M155.197 110.734H149.814V130.618H155.197V110.734Z" fill="#E0E0E0"/>
<path d="M191.116 129.463H120V130.626H191.116V129.463Z" fill="#E0E0E0"/>
<path d="M143.35 139.295H137.938V150.701H143.35V139.295Z" fill="white"/>
<path d="M157.283 155.183C157.283 155.302 150.126 155.399 141.307 155.399C132.487 155.399 125.33 155.302 125.33 155.183C125.33 155.064 132.48 154.967 141.307 154.967C150.134 154.967 157.283 155.064 157.283 155.183Z" fill="#E0E0E0"/>
<path d="M175.586 139.295H170.174V150.701H175.586V139.295Z" fill="#F5F5F5"/>
<path d="M189.52 155.183C189.52 155.302 182.363 155.399 173.543 155.399C164.723 155.399 157.566 155.302 157.566 155.183C157.566 155.064 164.716 154.967 173.543 154.967C182.37 154.967 189.52 155.064 189.52 155.183Z" fill="#EBEBEB"/>
<path d="M175.586 161.945H170.174V173.352H175.586V161.945Z" fill="#F5F5F5"/>
<path d="M189.52 177.833C189.52 177.953 182.363 178.05 173.543 178.05C164.723 178.05 157.566 177.953 157.566 177.833C157.566 177.714 164.716 177.617 173.543 177.617C182.37 177.617 189.52 177.714 189.52 177.833Z" fill="#EBEBEB"/>
<path d="M175.586 185.279H170.174V196.686H175.586V185.279Z" fill="#F5F5F5"/>
<path d="M189.52 201.167C189.52 201.287 182.363 201.384 173.543 201.384C164.723 201.384 157.566 201.287 157.566 201.167C157.566 201.048 164.716 200.951 173.543 200.951C182.37 200.951 189.52 201.048 189.52 201.167Z" fill="#EBEBEB"/>
<path d="M175.586 208.615H170.174V220.022H175.586V208.615Z" fill="#F5F5F5"/>
<path d="M189.52 224.496C189.52 224.615 182.363 224.712 173.543 224.712C164.723 224.712 157.566 224.615 157.566 224.496C157.566 224.376 164.716 224.279 173.543 224.279C182.37 224.279 189.52 224.376 189.52 224.496Z" fill="#EBEBEB"/>
<path d="M143.35 162.295H137.938V173.701H143.35V162.295Z" fill="white"/>
<path d="M157.283 178.175C157.283 178.294 150.126 178.391 141.307 178.391C132.487 178.391 125.33 178.294 125.33 178.175C125.33 178.056 132.48 177.959 141.307 177.959C150.134 177.959 157.283 178.056 157.283 178.175Z" fill="#E0E0E0"/>
<path d="M143.35 185.287H137.938V196.694H143.35V185.287Z" fill="white"/>
<path d="M157.283 201.175C157.283 201.294 150.126 201.391 141.307 201.391C132.487 201.391 125.33 201.294 125.33 201.175C125.33 201.056 132.48 200.959 141.307 200.959C150.134 200.959 157.283 201.056 157.283 201.175Z" fill="#E0E0E0"/>
<path d="M143.35 208.279H137.938V219.686H143.35V208.279Z" fill="white"/>
<path d="M157.283 224.165C157.283 224.285 150.126 224.382 141.307 224.382C132.487 224.382 125.33 224.285 125.33 224.165C125.33 224.046 132.48 223.949 141.307 223.949C150.134 223.949 157.283 224.046 157.283 224.165Z" fill="#E0E0E0"/>
<path d="M171.747 27.875C171.963 27.875 172.135 32.296 172.135 37.7383C172.135 43.1807 171.963 47.6016 171.747 47.6016C171.531 47.6016 171.359 43.1881 171.359 37.7383C171.359 32.2885 171.531 27.875 171.747 27.875Z" fill="#E0E0E0"/>
<path d="M191.369 49.1367L136.342 64.7555V170.59H191.369V49.1367Z" fill="#E0E0E0"/>
<path d="M144.596 62.3547V43.5898H178.472V52.7375L144.596 62.3547Z" fill="#E0E0E0"/>
<path d="M140.531 65.8145L140.971 163.128H185.733V52.9766L140.531 65.8145Z" fill="white"/>
<path d="M152.64 165.343C152.423 165.343 152.252 141.994 152.252 113.186C152.252 84.3792 152.423 61.0293 152.64 61.0293C152.856 61.0293 153.027 84.3792 153.027 113.186C153.027 141.994 152.856 165.343 152.64 165.343Z" fill="#E0E0E0"/>
<path d="M171.456 165.342C171.24 165.342 171.068 140.688 171.068 110.285C171.068 79.8827 171.24 55.2207 171.456 55.2207C171.672 55.2207 171.844 79.8678 171.844 110.285C171.844 140.703 171.672 165.342 171.456 165.342Z" fill="#E0E0E0"/>
<path d="M188.827 80.665C188.827 80.8812 177.682 81.0527 163.934 81.0527C150.187 81.0527 139.041 80.8812 139.041 80.665C139.041 80.4488 150.187 80.2773 163.934 80.2773C177.682 80.2773 188.827 80.4488 188.827 80.665Z" fill="#E0E0E0"/>
<path d="M188.357 110.45C188.357 110.666 177.211 110.838 163.463 110.838C149.716 110.838 138.57 110.666 138.57 110.45C138.57 110.234 149.716 110.062 163.463 110.062C177.211 110.062 188.357 110.234 188.357 110.45Z" fill="#E0E0E0"/>
<path d="M191.152 140.464C191.152 140.673 179.589 140.852 165.327 140.852C151.065 140.852 139.502 140.68 139.502 140.464C139.502 140.248 151.065 140.076 165.327 140.076C179.589 140.076 191.152 140.248 191.152 140.464Z" fill="#E0E0E0"/>
<path d="M191.16 49.1376C191.22 49.3389 179.038 52.9771 163.956 57.2564C148.874 61.5358 136.603 64.8384 136.543 64.6371C136.484 64.4358 148.665 60.7977 163.747 56.5184C178.829 52.239 191.101 48.9363 191.16 49.1376Z" fill="#E0E0E0"/>
<path d="M155.152 102.912C155.003 102.763 157.71 99.8107 161.199 96.3216C164.688 92.8326 167.64 90.1263 167.789 90.2754C167.938 90.4245 165.232 93.3768 161.743 96.8659C158.254 100.355 155.301 103.061 155.152 102.912Z" fill="#E0E0E0"/>
<path d="M163.568 90.9315C163.717 91.088 162.741 92.2511 161.391 93.5334C160.042 94.8157 158.834 95.7327 158.685 95.5761C158.536 95.4195 159.512 94.2565 160.862 92.9742C162.211 91.6919 163.419 90.7749 163.568 90.9315Z" fill="#E0E0E0"/>
<path d="M166.67 124.622C166.819 124.771 164.508 127.373 161.511 130.43C158.506 133.486 155.949 135.842 155.8 135.693C155.651 135.544 157.962 132.942 160.959 129.885C163.963 126.829 166.52 124.473 166.67 124.622Z" fill="#E0E0E0"/>
<path d="M162.442 125.941C162.599 126.083 161.831 127.186 160.727 128.409C159.624 129.631 158.603 130.503 158.446 130.362C158.289 130.22 159.057 129.117 160.161 127.894C161.264 126.671 162.286 125.799 162.442 125.941Z" fill="#E0E0E0"/>
<path d="M181.454 65.8303C181.619 65.9719 180.47 67.5748 178.89 69.4237C177.309 71.2726 175.9 72.6593 175.736 72.5176C175.572 72.376 176.72 70.7731 178.301 68.9242C179.881 67.0753 181.29 65.6886 181.454 65.8303Z" fill="#E0E0E0"/>
<path d="M180.171 63.8757C180.328 64.0173 179.515 65.1729 178.352 66.4626C177.189 67.7449 176.115 68.6694 175.959 68.5277C175.802 68.3861 176.615 67.2305 177.785 65.9408C178.948 64.6585 180.022 63.734 180.178 63.8757H180.171Z" fill="#E0E0E0"/>
<path d="M148.501 151.007C148.673 151.126 147.972 152.423 146.928 153.892C145.884 155.361 144.9 156.449 144.729 156.33C144.557 156.211 145.258 154.914 146.302 153.445C147.346 151.976 148.33 150.888 148.501 151.007Z" fill="#E0E0E0"/>
<path d="M147.173 149.232C147.33 149.381 146.711 150.29 145.794 151.267C144.877 152.244 144.005 152.922 143.848 152.78C143.692 152.639 144.311 151.722 145.228 150.745C146.145 149.768 147.017 149.09 147.173 149.232Z" fill="#E0E0E0"/>
<path d="M209.673 38.0445C209.278 36.9859 208.875 35.9123 208.204 35.0028C207.54 34.0932 206.564 33.3477 205.446 33.206C204.327 33.0718 203.082 33.6757 202.717 34.7418C202.553 32.3338 202.217 29.8661 201.01 27.7711C199.802 25.6837 197.558 24.0361 195.15 24.1852C192.876 24.3268 190.938 26.0117 189.857 28.0097C188.776 30.0152 188.403 32.3114 188.052 34.5554C187.195 33.4968 185.376 33.8323 184.474 34.8536C183.579 35.875 183.348 37.3139 183.154 38.6558H210.239L209.673 38.0296V38.0445Z" fill="#F5F5F5"/>
<path d="M119.307 68.2515C118.912 67.1929 118.51 66.1193 117.839 65.2098C117.175 64.3002 116.199 63.5547 115.08 63.4131C113.962 63.2714 112.717 63.8827 112.352 64.9489C112.188 62.5408 111.852 60.0731 110.644 57.9782C109.437 55.8907 107.193 54.2431 104.785 54.3922C102.511 54.5338 100.572 56.2187 99.4913 58.2167C98.4103 60.2222 98.0376 62.5184 97.6872 64.7625C96.8298 63.7038 95.0107 64.0393 94.1086 65.0607C93.214 66.082 92.9829 67.5209 92.7891 68.8629H119.874L119.307 68.2366V68.2515Z" fill="#EBEBEB"/>
<path d="M80.0927 19.5621C79.541 18.0934 78.9818 16.5949 78.0499 15.3275C77.1255 14.0601 75.7686 13.0164 74.2105 12.83C72.6523 12.6436 70.9227 13.4786 70.4157 14.9696C70.1921 11.6222 69.7149 8.17789 68.0375 5.27033C66.3601 2.36278 63.2289 0.0740099 59.8814 0.282757C56.7204 0.476594 54.0141 2.825 52.5082 5.61327C51.0022 8.40154 50.4878 11.5999 49.9958 14.7236C48.7955 13.2549 46.2681 13.7172 45.0156 15.1411C43.7632 16.5651 43.45 18.5631 43.1816 20.4343H80.8755L80.0927 19.5621Z" fill="#F5F5F5"/>
<path d="M60.1769 197.715H-0.00195312V228.155H60.1769V197.715Z" fill="#9B9B9B"/>
<path d="M49.4949 222.034C49.4949 212.111 41.4507 204.066 31.5277 204.066C21.6048 204.066 13.5605 212.111 13.5605 222.034C13.5605 231.957 21.6048 240.001 31.5277 240.001C41.4507 240.001 49.4949 231.957 49.4949 222.034Z" fill="#303030"/>
<path d="M22.1035 222.033C22.1035 224.136 22.7894 226.074 23.9524 227.64C25.6671 229.958 28.4256 231.464 31.5344 231.464C36.7382 231.464 40.9653 227.244 40.9653 222.041C40.9653 218 38.4231 214.548 34.852 213.214C33.8232 212.826 32.7049 212.617 31.5419 212.617C26.3381 212.617 22.1184 216.837 22.1184 222.048L22.1035 222.033Z" fill="#9B9B9B"/>
<path d="M0 113.515V228.162H9.96769C9.96769 228.087 9.94532 228.02 9.92296 227.953C9.39363 225.97 9.11779 223.875 9.14015 221.713C9.1998 217.158 10.6387 212.931 13.0542 209.419C13.6133 208.607 14.2172 207.839 14.8733 207.108C15.8052 206.072 16.834 205.118 17.9448 204.268C18.9662 203.485 20.0621 202.784 21.2102 202.18C24.3862 200.495 28.0243 199.578 31.8713 199.623C35.4871 199.69 38.8941 200.592 41.9135 202.18C48.1908 205.483 52.7087 211.671 53.7003 218.977C53.8345 219.976 53.909 220.997 53.909 222.034C53.909 224.084 53.6555 226.067 53.1262 227.953C53.1039 228.02 53.1039 228.087 53.0815 228.147C53.0815 228.147 53.0815 228.147 53.0815 228.154H116.645C121.23 228.154 125.002 224.606 125.33 220.028C125.442 218.023 125.547 216.151 125.636 214.37C125.658 213.945 125.681 213.527 125.703 213.117C125.994 207.541 126.203 202.754 126.3 197.357C126.329 195.955 126.344 194.516 126.359 193.01C126.374 190.811 126.382 188.477 126.359 185.928C126.247 176.802 125.808 167.386 124.682 158.91C124.645 158.589 124.592 158.246 124.54 157.881C124.525 157.762 124.503 157.635 124.488 157.516C124.473 157.389 124.451 157.262 124.428 157.135C124.406 157.009 124.384 156.875 124.361 156.748C124.339 156.614 124.317 156.479 124.294 156.345C124.272 156.211 124.249 156.069 124.22 155.935C124.167 155.652 124.123 155.369 124.071 155.078C124.041 154.929 124.018 154.787 123.989 154.638C123.907 154.191 123.817 153.721 123.72 153.244C123.69 153.087 123.66 152.923 123.623 152.759C123.623 152.759 123.623 152.752 123.623 152.744C123.608 152.67 123.593 152.595 123.578 152.521C123.564 152.439 123.541 152.349 123.526 152.267C123.467 151.991 123.414 151.715 123.355 151.432C123.318 151.246 123.28 151.067 123.236 150.873C123.168 150.552 123.101 150.232 123.034 149.904C122.922 149.367 122.803 148.815 122.676 148.256C122.617 147.973 122.55 147.697 122.49 147.414C122.296 146.534 122.095 145.639 121.886 144.722C121.849 144.558 121.812 144.387 121.774 144.223C121.633 143.627 121.498 143.015 121.349 142.411C121.32 142.27 121.282 142.128 121.252 141.986C121.208 141.8 121.163 141.614 121.118 141.427C121.074 141.241 121.029 141.054 120.984 140.868C120.895 140.495 120.805 140.123 120.716 139.742C120.589 139.228 120.47 138.706 120.343 138.184C120.306 138.02 120.261 137.849 120.224 137.685C120.119 137.245 120.007 136.805 119.903 136.365C119.888 136.291 119.866 136.216 119.843 136.134C119.769 135.821 119.694 135.515 119.612 135.202C119.038 132.861 118.449 130.528 117.883 128.269C117.808 127.97 117.726 127.665 117.652 127.367C117.465 126.643 117.286 125.928 117.107 125.227C117.018 124.877 116.928 124.526 116.839 124.183C116.66 123.497 116.489 122.819 116.317 122.155C116.25 121.902 116.183 121.648 116.123 121.402C115.892 120.515 115.668 119.665 115.452 118.853C115.452 118.83 115.445 118.808 115.437 118.793C115.422 118.741 115.408 118.681 115.393 118.629C115.385 118.584 115.37 118.54 115.355 118.495C114.133 113.843 113.208 110.48 112.97 109.616C112.962 109.578 112.955 109.541 112.94 109.511C112.746 108.751 112.5 108.013 112.209 107.29C112.209 107.282 112.209 107.275 112.202 107.267C111.904 106.537 111.561 105.821 111.173 105.142L111.143 105.09C110.927 104.71 110.696 104.33 110.442 103.964C110.345 103.815 110.234 103.666 110.129 103.517C110.055 103.413 109.988 103.316 109.913 103.219C108.37 101.154 106.402 99.4168 104.12 98.1494C104.008 98.0897 103.904 98.0301 103.792 97.9705C103.703 97.9183 103.606 97.8735 103.516 97.8288C102.823 97.471 102.1 97.1653 101.354 96.8969C101.235 96.8522 101.123 96.8149 101.004 96.7776C100.758 96.6956 100.519 96.621 100.273 96.554C98.6704 96.0992 96.9706 95.8457 95.2112 95.8457L20.9568 109.616L0 113.515Z" fill="#C6C6C6"/>
<path d="M85.4438 206.243H96.5447C97.6556 206.243 98.5726 205.334 98.5726 204.215C98.5726 203.104 97.663 202.188 96.5447 202.188H85.4438C84.333 202.188 83.416 203.097 83.416 204.215C83.416 205.326 84.3256 206.243 85.4438 206.243Z" fill="#C22126"/>
<path d="M-0.00107171 152.342V193.01H126.358C126.373 190.811 126.381 188.477 126.358 185.928C126.246 176.803 125.806 167.387 124.681 158.91C124.643 158.589 124.591 158.246 124.539 157.881C124.524 157.762 124.502 157.635 124.487 157.516C124.472 157.389 124.45 157.262 124.427 157.136C124.405 157.009 124.383 156.875 124.36 156.748C124.338 156.614 124.315 156.479 124.293 156.345C124.271 156.211 124.248 156.069 124.219 155.935C124.166 155.652 124.122 155.369 124.069 155.078C123.965 154.496 123.846 153.878 123.719 153.244C123.689 153.087 123.659 152.923 123.622 152.759C123.622 152.759 123.622 152.752 123.622 152.744C123.607 152.67 123.592 152.595 123.577 152.521C123.562 152.439 123.54 152.349 123.525 152.267C121.445 152.267 119.194 152.26 116.778 152.26C115.951 152.26 115.108 152.26 114.243 152.26C110.188 152.26 105.729 152.26 100.913 152.26C95.389 152.26 89.4024 152.26 83.0282 152.26C82.0143 152.26 80.9854 152.26 79.9492 152.26C66.3135 152.26 51.0377 152.282 34.8746 152.304C29.8796 152.304 24.7951 152.319 19.6435 152.327C18.6669 152.327 17.6828 152.327 16.6987 152.327C11.1818 152.327 5.59783 152.342 -0.0234375 152.349L-0.00107171 152.342Z" fill="#C22126"/>
<path d="M126.521 214.377H121.765C120.729 214.377 119.894 213.535 119.894 212.506V199.235C119.894 198.199 120.736 197.364 121.765 197.364H126.521C127.558 197.364 128.393 198.206 128.393 199.235V212.506C128.393 213.542 127.55 214.377 126.521 214.377Z" fill="#C22126"/>
<path d="M0 95.8532V152.737H34.8906V121.991H116.272C115.982 120.873 115.706 119.807 115.452 118.793C115.437 118.741 115.422 118.681 115.407 118.629C115.4 118.584 115.385 118.54 115.37 118.495C115.348 118.405 115.325 118.316 115.303 118.234C115.266 118.1 115.236 117.973 115.199 117.846C114.96 116.907 114.729 116.02 114.505 115.177C114.453 114.976 114.401 114.775 114.349 114.581C114.08 113.545 113.82 112.59 113.581 111.711C113.536 111.554 113.499 111.405 113.454 111.256C113.454 111.233 113.439 111.211 113.439 111.189C113.409 111.099 113.387 111.002 113.365 110.913C113.238 110.458 113.111 110.026 112.992 109.623C112.985 109.586 112.97 109.548 112.962 109.519C112.709 108.669 112.463 107.931 112.232 107.297C112.232 107.29 112.232 107.282 112.224 107.275C111.866 106.305 111.531 105.59 111.195 105.15C111.18 105.135 111.173 105.12 111.158 105.098H111.165C112.455 105.098 113.879 105.217 115.348 105.53C122.02 106.932 125.211 111.077 126.493 116.609C125.293 116.795 124.436 117.891 124.548 119.114L126.493 139.526C126.613 140.801 127.746 141.733 129.021 141.614L134.664 141.077C136.029 140.95 136.976 139.675 136.722 138.333L132.808 118.107C132.584 116.937 131.503 116.124 130.311 116.243L129.416 116.325C127.94 110.19 123.31 106.149 115.989 104.621C114.028 104.211 112.12 104.032 110.465 103.972C110.368 103.823 110.263 103.674 110.159 103.525C110.084 103.42 110.017 103.323 109.943 103.226C108.429 101.169 106.446 99.4317 104.15 98.1568C104.038 98.0972 103.934 98.0376 103.822 97.9779C103.733 97.9257 103.636 97.881 103.546 97.8363C102.853 97.4784 102.13 97.1727 101.384 96.9043C101.265 96.8596 101.153 96.8224 101.034 96.7851C100.795 96.7031 100.549 96.6285 100.303 96.5614C98.6928 96.0992 96.993 95.8457 95.2485 95.8457H21.2699C21.2699 95.8457 21.2624 95.8457 21.255 95.8532H0Z" fill="#C22126"/>
<path d="M-0.00195312 109.631V152.744H123.629C123.614 152.67 123.599 152.595 123.584 152.521C123.569 152.439 123.547 152.349 123.532 152.267C123.472 151.991 123.42 151.715 123.36 151.432C123.323 151.246 123.286 151.067 123.241 150.873C123.174 150.552 123.107 150.232 123.04 149.904C122.928 149.367 122.809 148.815 122.682 148.256C122.622 147.973 122.555 147.697 122.496 147.414C122.302 146.534 122.1 145.639 121.892 144.722C121.854 144.558 121.817 144.387 121.78 144.223C121.638 143.627 121.504 143.015 121.355 142.411C121.325 142.27 121.288 142.128 121.258 141.986C121.213 141.8 121.168 141.614 121.124 141.427C121.079 141.241 121.034 141.054 120.99 140.868C120.9 140.495 120.811 140.123 120.721 139.742C120.594 139.228 120.475 138.706 120.348 138.184C120.311 138.02 120.266 137.849 120.229 137.685C120.125 137.245 120.013 136.805 119.909 136.365C119.894 136.291 119.871 136.216 119.849 136.134C119.774 135.821 119.7 135.515 119.618 135.202C119.044 132.861 118.455 130.528 117.888 128.269C117.814 127.97 117.732 127.665 117.657 127.367C117.471 126.643 117.292 125.928 117.113 125.227C117.023 124.877 116.934 124.526 116.844 124.183C116.665 123.497 116.494 122.819 116.323 122.155C116.255 121.902 116.188 121.648 116.129 121.402C115.898 120.515 115.674 119.665 115.458 118.853C115.458 118.83 115.45 118.808 115.443 118.793C115.428 118.741 115.413 118.681 115.398 118.629C115.391 118.584 115.376 118.54 115.361 118.495C115.338 118.405 115.316 118.316 115.294 118.234C115.256 118.1 115.227 117.973 115.189 117.846C114.951 116.907 114.72 116.02 114.496 115.177C114.444 114.976 114.392 114.775 114.339 114.581C114.071 113.545 113.81 112.59 113.572 111.711C113.527 111.561 113.49 111.405 113.445 111.256C113.445 111.233 113.43 111.211 113.43 111.189C113.4 111.099 113.378 111.002 113.355 110.913C113.229 110.458 113.102 110.026 112.983 109.623H-0.00195312V109.631Z" fill="#551615"/>
<path d="M77.9595 119.874C77.8402 117.898 79.4058 116.229 81.3889 116.229H97.0748C107.169 116.229 114.125 124.228 115.355 134.509L118.993 179.173C119.12 180.702 117.912 182.014 116.377 182.014H84.2294C82.8725 182.014 81.7542 180.963 81.6722 179.606L77.967 119.874H77.9595Z" fill="#848484"/>
<path d="M81.0234 122.707L83.7073 161.997L84.6467 175.744C84.6467 177.511 86.0781 178.95 87.845 178.95H112.895C117.293 178.95 115.989 172.427 115.631 168.304L112.865 136.015C112.865 135.389 112.835 134.777 112.768 134.166C111.918 125.913 105.395 119.494 97.4847 119.494H88.091C86.1825 119.494 81.0234 119.494 81.0234 122.715V122.707Z" fill="#DEDEDE"/>
<path d="M22.1035 222.033C22.1035 224.135 22.7894 226.074 23.9524 227.639C34.4196 224.754 35.113 216.829 34.8446 213.206C33.8157 212.818 32.6974 212.609 31.5344 212.609C26.3307 212.609 22.111 216.829 22.111 222.04L22.1035 222.033Z" fill="#848484"/>
<path d="M83.707 161.997L84.6464 175.744C84.6464 177.511 86.0778 178.95 87.8447 178.95H112.894C117.293 178.95 115.988 172.426 115.63 168.304L112.865 136.015C112.865 135.389 112.835 134.777 112.768 134.166C108.399 144.342 99.6538 158.284 83.707 161.997Z" fill="#C8C8C8"/>
<path d="M-0.00195312 115.393V147.227H41.002C42.9702 147.227 44.5805 145.616 44.5805 143.641V118.971C44.5805 117.003 42.9702 115.393 41.002 115.393H-0.00195312Z" fill="#DEDEDE"/>
<path d="M53.028 147.227H73.9549C75.326 147.227 76.4375 146.115 76.4375 144.744V117.875C76.4375 116.504 75.326 115.393 73.9549 115.393H53.028C51.6569 115.393 50.5454 116.504 50.5454 117.875V144.744C50.5454 146.115 51.6569 147.227 53.028 147.227Z" fill="#DEDEDE"/>
<path d="M313.76 232.324H317.346L315.929 151.456L315.713 139.334H314.021L313.991 150.241L313.76 232.324Z" fill="#F3D33E"/>
<path d="M313.992 150.241C314.558 150.524 315.237 150.919 315.93 151.456L315.714 139.326H314.014L313.984 150.241H313.992Z" fill="#E0AE2E"/>
<path d="M306.023 141.211H325.093C325.694 141.211 326.182 140.724 326.182 140.122V113.246C326.182 112.645 325.694 112.158 325.093 112.158H306.023C305.421 112.158 304.934 112.645 304.934 113.246V140.122C304.934 140.724 305.421 141.211 306.023 141.211Z" fill="#F3D33E"/>
<path d="M307.148 139.848H323.967C324.506 139.848 324.943 139.41 324.943 138.871V114.425C324.943 113.886 324.506 113.449 323.967 113.449H307.148C306.608 113.449 306.171 113.886 306.171 114.425V138.871C306.171 139.41 306.608 139.848 307.148 139.848Z" fill="#EEF3FF"/>
<path d="M312.031 232.122H319.091L318.584 222.348C318.555 221.803 318.107 221.371 317.563 221.371H313.627C313.045 221.371 312.568 221.826 312.538 222.407L312.039 232.122H312.031Z" fill="#F3D33E"/>
<path d="M315.833 232.122H319.091L318.584 222.266C318.562 221.766 318.144 221.371 317.645 221.371H316.631C315.803 221.371 315.147 222.072 315.207 222.899L315.841 232.122H315.833Z" fill="#E0AE2E"/>
<path opacity="0.1" d="M293.535 138.205H187.551V222.964H293.535V138.205Z" fill="#C22126"/>
<path opacity="0.1" d="M188.23 180.365V222.771H293.387V138.012H269.366C251.369 175.579 214.056 180.835 188.23 180.365Z" fill="#C22126"/>
<path d="M205.006 209.373L205.058 212.199L205.423 231.903C205.423 232.022 205.505 232.127 205.609 232.127C205.781 232.127 205.93 231.963 205.93 231.746L206.526 213.093L206.646 209.373H204.998H205.006Z" fill="#C22126"/>
<path d="M205.006 209.373L205.058 212.199C205.52 212.385 206.072 212.668 206.534 213.093L206.653 209.373H205.006Z" fill="#9B0712"/>
<path d="M279.029 209.373L279.081 212.199L279.446 231.903C279.446 232.022 279.528 232.127 279.633 232.127C279.804 232.127 279.953 231.963 279.953 231.746L280.55 213.093L280.669 209.373H279.021H279.029Z" fill="#C22126"/>
<path d="M279.029 209.373L279.081 212.199C279.544 212.385 280.095 212.668 280.558 213.093L280.677 209.373H279.029Z" fill="#9B0712"/>
<path d="M201.196 210.32H284.486C285.071 210.32 285.545 209.846 285.545 209.262V203.208C285.545 202.623 285.071 202.149 284.486 202.149H201.196C200.611 202.149 200.137 202.623 200.137 203.208V209.262C200.137 209.846 200.611 210.32 201.196 210.32Z" fill="#C22126"/>
<path d="M292.156 130.877L292.193 134.12L293.319 231.702C293.319 231.941 293.461 232.127 293.632 232.127H293.714C294.05 232.127 294.325 231.754 294.333 231.292L295.891 137.102L295.995 130.877H292.148H292.156Z" fill="#C22126"/>
<path d="M292.156 130.877L292.194 134.12C293.222 134.56 294.698 135.432 295.899 137.102L296.003 130.877H292.156Z" fill="#9B0712"/>
<path d="M186.306 130.877L186.344 134.12L187.469 231.702C187.469 231.941 187.611 232.127 187.782 232.127H187.864C188.2 232.127 188.476 231.754 188.483 231.292L190.041 137.102L190.146 130.877H186.299H186.306Z" fill="#C22126"/>
<path d="M186.307 130.877L186.344 134.12C187.373 134.56 188.849 135.432 190.049 137.102L190.154 130.877H186.307Z" fill="#9B0712"/>
<path d="M181.207 118.68V130.176C181.207 130.392 181.252 130.601 181.326 130.78C181.498 131.167 181.818 131.436 182.199 131.436H299.403C299.947 131.436 300.394 130.869 300.394 130.176V118.68C300.394 117.987 299.947 117.42 299.403 117.42H182.199C181.654 117.42 181.207 117.987 181.207 118.68Z" fill="#551615"/>
<path d="M181.207 118.68V130.176C181.207 130.392 181.252 130.601 181.326 130.78C181.393 130.937 181.55 131.183 181.766 131.309C182.035 131.459 182.34 131.429 182.601 131.436H231.895C244.025 127.381 256.103 121.886 264.974 117.428H182.199C181.654 117.428 181.207 117.994 181.207 118.688V118.68Z" fill="#C22126"/>
<path d="M348.875 232.411C348.875 232.515 272.31 232.604 177.874 232.604C83.4379 232.604 6.85742 232.515 6.85742 232.411C6.85742 232.306 83.4081 232.217 177.874 232.217C272.34 232.217 348.875 232.306 348.875 232.411Z" fill="#263238"/>
<path d="M132.137 28.5468C132.137 28.5468 131.674 28.3902 130.817 28.1964C129.96 28.01 128.677 27.846 127.127 28.0548C125.584 28.2635 123.757 28.8823 122.154 30.2019C120.559 31.4991 119.187 33.4524 118.643 35.7784C118.643 35.8008 118.635 35.8232 118.628 35.8381L118.523 36.2332L118.367 35.853C117.472 33.6462 115.884 31.8942 114.162 30.7759C112.432 29.6427 110.576 29.1731 109.025 29.0612C107.467 28.9494 106.2 29.1731 105.357 29.3967C104.508 29.6204 104.06 29.8142 104.053 29.7918C104.053 29.7844 104.157 29.7322 104.373 29.6353C104.582 29.5384 104.91 29.4191 105.328 29.2923C106.17 29.0389 107.445 28.7854 109.033 28.8674C110.606 28.9494 112.514 29.4116 114.289 30.5597C116.056 31.6855 117.688 33.4747 118.605 35.7411L118.352 35.7635C118.352 35.7635 118.359 35.7188 118.367 35.6964C118.926 33.3107 120.335 31.3053 121.983 29.9931C123.63 28.6512 125.516 28.0399 127.089 27.8535C128.677 27.6596 129.975 27.8609 130.832 28.0846C131.264 28.1964 131.592 28.3082 131.809 28.3903C132.025 28.4797 132.137 28.5244 132.137 28.5319V28.5468Z" fill="#263238"/>
<path d="M169.047 8.29135C169.047 8.29135 168.786 8.2168 168.316 8.11988C167.847 8.02296 167.146 7.94095 166.296 8.06024C165.453 8.17952 164.462 8.52246 163.59 9.23817C162.725 9.94642 161.979 11.0125 161.681 12.2725V12.3097L161.569 12.7049L161.413 12.3247C160.928 11.1244 160.063 10.1701 159.124 9.55875C158.185 8.93996 157.171 8.67903 156.328 8.61193C155.478 8.54483 154.785 8.66411 154.323 8.77594C153.861 8.88777 153.607 8.99215 153.6 8.96978C153.6 8.96232 153.652 8.92505 153.771 8.87286C153.89 8.82067 154.062 8.74612 154.293 8.67157C154.755 8.52246 155.463 8.37336 156.343 8.41809C157.215 8.45537 158.274 8.70885 159.258 9.34254C160.242 9.96879 161.152 10.9603 161.659 12.2203L161.405 12.2426V12.2054C161.726 10.8783 162.509 9.76749 163.426 9.03688C164.343 8.29135 165.394 7.95586 166.266 7.85895C167.146 7.76203 167.862 7.87386 168.331 8.0006C168.57 8.06769 168.749 8.12734 168.868 8.17952C168.987 8.23171 169.047 8.26153 169.039 8.26899L169.047 8.29135Z" fill="#263238"/>
<path d="M144.915 0.000264041C144.915 0.000264041 144.661 0.29102 144.207 0.805433C143.752 1.31985 143.126 2.10265 142.477 3.14639C141.165 5.20404 139.86 8.48436 139.905 12.2493C139.905 12.2865 139.905 12.3313 139.905 12.3611L139.637 12.3835C139.361 10.5495 138.749 8.86458 137.974 7.45553C137.206 6.04649 136.297 4.89838 135.439 4.03356C134.582 3.16875 133.807 2.55742 133.24 2.16975C132.681 1.78207 132.353 1.58824 132.368 1.56587C132.368 1.55842 132.457 1.59569 132.614 1.68515C132.77 1.77462 133.009 1.8939 133.3 2.08028C133.881 2.44559 134.686 3.03456 135.573 3.89937C136.461 4.75673 137.393 5.90484 138.19 7.33625C138.988 8.76021 139.622 10.4749 139.905 12.3462L139.637 12.3686C139.637 12.3686 139.637 12.294 139.637 12.2493C139.592 8.41726 140.956 5.09967 142.32 3.04201C142.999 1.99828 143.655 1.23038 144.14 0.73088C144.371 0.477401 144.579 0.298475 144.714 0.171735C144.848 0.0449957 144.922 -0.0146465 144.93 -0.00719123L144.915 0.000264041Z" fill="#263238"/>
<path d="M253.521 75.7374C262.958 75.7374 270.609 68.0871 270.609 58.65C270.609 49.2128 262.958 41.5625 253.521 41.5625C244.084 41.5625 236.434 49.2128 236.434 58.65C236.434 68.0871 244.084 75.7374 253.521 75.7374Z" fill="#FF725E"/>
<path opacity="0.9" d="M253.521 75.7374C262.958 75.7374 270.609 68.0871 270.609 58.65C270.609 49.2128 262.958 41.5625 253.521 41.5625C244.084 41.5625 236.434 49.2128 236.434 58.65C236.434 68.0871 244.084 75.7374 253.521 75.7374Z" fill="white"/>
<path d="M268.343 62.1807C270.293 53.9938 265.238 45.7759 257.051 43.8255C248.864 41.8751 240.646 46.9308 238.696 55.1177C236.745 63.3046 241.801 71.5225 249.988 73.4729C258.175 75.4233 266.393 70.3676 268.343 62.1807Z" fill="#FF725E"/>
<path opacity="0.6" d="M268.343 62.1807C270.293 53.9938 265.238 45.7759 257.051 43.8255C248.864 41.8751 240.646 46.9308 238.696 55.1177C236.745 63.3046 241.801 71.5225 249.988 73.4729C258.175 75.4233 266.393 70.3676 268.343 62.1807Z" fill="white"/>
<path d="M253.521 71.3316C260.525 71.3316 266.203 65.6539 266.203 58.6502C266.203 51.6464 260.525 45.9688 253.521 45.9688C246.518 45.9688 240.84 51.6464 240.84 58.6502C240.84 65.6539 246.518 71.3316 253.521 71.3316Z" fill="#FF725E"/>
<path opacity="0.3" d="M253.521 71.3316C260.525 71.3316 266.203 65.6539 266.203 58.6502C266.203 51.6464 260.525 45.9688 253.521 45.9688C246.518 45.9688 240.84 51.6464 240.84 58.6502C240.84 65.6539 246.518 71.3316 253.521 71.3316Z" fill="white"/>
<path d="M257.382 68.0671C262.57 65.9392 265.052 60.008 262.924 54.8195C260.796 49.6309 254.864 47.1499 249.676 49.2778C244.487 51.4058 242.006 57.337 244.134 62.5255C246.262 67.714 252.193 70.1951 257.382 68.0671Z" fill="#FF725E"/>
</g>
<defs>
<clipPath>
<rect width="348.877" height="240" fill="white"/>
</clipPath>
</defs>
</svg>
